<?xml version="1.0" standalone="no"?>
<!DOCTYPE svg PUBLIC "-//W3C//DTD SVG 20010904//EN"
 "http://www.w3.org/TR/2001/REC-SVG-20010904/DTD/svg10.dtd">
<svg version="1.0" xmlns="http://www.w3.org/2000/svg"
 width="512.000000pt" height="512.000000pt" viewBox="0 0 512.000000 512.000000"
 preserveAspectRatio="xMidYMid meet">

<g transform="translate(0.000000,512.000000) scale(0.100000,-0.100000)"
fill="#77F" stroke="none">
<path d="M3555 5113 c-156 -20 -314 -67 -450 -135 -205 -103 -298 -183 -772
-660 -343 -345 -354 -361 -361 -498 -5 -97 21 -169 86 -241 106 -118 272 -149
417 -76 25 12 189 168 425 402 417 414 449 440 607 493 70 24 93 26 218 26
126 0 148 -3 220 -28 202 -69 360 -220 438 -416 83 -212 55 -466 -74 -657 -17
-26 -202 -219 -410 -428 -325 -327 -382 -388 -404 -438 -38 -83 -43 -158 -16
-247 19 -62 31 -81 84 -135 81 -82 148 -108 257 -103 143 7 145 8 585 451 419
420 480 493 570 675 52 104 96 233 122 354 27 125 25 429 -4 558 -45 202 -127
382 -244 540 -81 110 -128 160 -230 245 -200 167 -433 272 -684 310 -92 13
-302 18 -380 8z"/>
<path d="M3107 3519 c-20 -5 -56 -18 -80 -30 -28 -14 -259 -238 -709 -687
-756 -755 -723 -715 -723 -867 1 -65 6 -91 27 -137 63 -136 211 -221 352 -204
125 16 115 7 837 732 744 747 712 710 713 849 0 130 -47 221 -150 291 -83 56
-176 74 -267 53z"/>
<path d="M1188 3127 c-31 -13 -74 -38 -95 -55 -21 -16 -205 -198 -409 -403
-332 -336 -378 -386 -448 -492 -172 -258 -244 -513 -233 -832 4 -135 9 -178
35 -275 100 -386 325 -689 656 -882 233 -136 476 -195 761 -185 219 8 375 47
560 139 204 102 303 187 766 654 359 363 364 370 364 519 0 78 -4 97 -28 146
-48 100 -157 178 -268 194 -60 9 -152 -10 -209 -42 -26 -15 -210 -189 -435
-412 -344 -342 -398 -391 -460 -423 -105 -54 -196 -79 -310 -85 -215 -12 -395
58 -542 208 -133 137 -203 307 -203 499 0 145 41 278 121 397 17 26 202 219
410 428 413 415 422 427 435 552 14 136 -66 277 -193 339 -81 40 -195 44 -275
11z"/>
</g>
</svg>
